PathFileType	4	(X/Y/Z)	C:/Users/beibeiliu/ov580/test_trc\sequence.27_training_dense_right.trc
DataRate	CameraRate	NumFrames	NumMarkers	Units	OrigDataRate	OrigDataStartFrame	OrigNumFrames
120	120	18	19	mm	120	42	331
Frame#	Time	ThumbCMC			ThumbMCP			ThumbIP			ThumbTip			IndexMCP			IndexPIP			IndexTip			MiddleMCP			MiddlePIP			MiddleTip			RingMCP			RingPIP			RingTip			PinkyMCP			PinkyPIP			PinkyTip			BackHand1			BackHand2			BackHand3	
		X0	Y0	Z0	X1	Y1	Z1	X2	Y2	Z2	X3	Y3	Z3	X4	Y4	Z4	X5	Y5	Z5	X6	Y6	Z6	X7	Y7	Z7	X8	Y8	Z8	X9	Y9	Z9	X10	Y10	Z10	X11	Y11	Z11	X12	Y12	Z12	X13	Y13	Z13	X14	Y14	Z14	X15	Y15	Z15	X16	Y16	Z16	X17	Y17	Z17	X18	Y18	Z18	
41	0.341667	222.838	19.957	39.7972	203.417	25.3689	15.295	196.788	19.2797	-9.05545	187.412	18.0577	-29.002	241.041	6.95041	-21.3173	232.911	5.07621	-43.4701	225.545	7.56937	-63.3287	224.984	-13.7297	-27.563	202.317	-12.1244	-41.3802	172.23	-3.93245	-40.0944	216.045	-32.1915	-18.8957	197.238	-22.1169	-30.0499	173.116	-8.1541	-17.1646	218.668	-50.521	1.16743	214.965	-53.2953	-22.2977	210.95	-59.7299	-35.8063	238.613	-31.1051	32.3242	237.092	-27.7694	53.2893	246.381	-2.96954	39.2309	
42	0.35	222.837	18.8181	38.8899	203.26	23.4891	15.6032	195.105	21.2941	-10.0702	186.432	19.396	-30.0297	238.625	3.11236	-23.9375	232.078	3.39541	-41.6135	224.227	5.28934	-62.7948	224.253	-16.5962	-27.1927	205.203	-13.5129	-41.3314	175.082	-3.50531	-42.7273	217.59	-28.3802	-17.3046	194.012	-20.6254	-28.9131	177.048	-6.01262	-18.6588	218.886	-51.1847	0.69982	216.224	-55.7617	-17.1242	212.933	-59.8308	-37.7114	238.236	-30.3433	32.2344	237.147	-28.8091	53.4867	246.062	-3.63923	36.0644	
43	0.358333	221.786	22.0443	39.377	203.191	22.238	15.3583	194.669	21.2666	-6.83096	186.827	19.0261	-24.8575	239.595	3.10472	-18.8384	232.886	6.92425	-45.8252	225.899	7.42794	-62.933	227.051	-14.5462	-22.261	206.194	-8.63503	-42.9704	179.02	-2.08947	-45.0585	218.603	-29.528	-16.2179	192.519	-18.1879	-27.6944	174.476	-8.54089	-14.7831	220.256	-51.4321	-0.873814	217.588	-52.6659	-19.1873	213.258	-58.3493	-37.3274	237.923	-29.0302	32.641	238.363	-27.6494	54.285	244.341	-6.08982	40.6661	
44	0.366667	221.528	17.7047	37.8153	203.303	22.6999	16.6451	194.318	21.7019	-5.53498	185.704	20.4425	-25.1789	240.374	5.52313	-23.4634	234.005	7.71242	-41.9989	224.803	3.99547	-64.2057	226.807	-12.9938	-25.0286	205.264	-11.7658	-43.0675	178.079	-2.68259	-46.2976	215.502	-28.9627	-18.7746	191.879	-17.4483	-27.4562	174.929	-7.31985	-13.0929	220.672	-46.1049	-1.2801	216.197	-53.6224	-20.5537	214.574	-54.129	-38.6436	239.579	-30.5317	28.9621	235.903	-27.07	57.9301	245.032	-3.28888	41.2039	
45	0.375	221.114	18.767	38.8365	202.822	24.2986	13.4839	194.073	25.0466	-8.52078	184.914	23.4361	-27.8987	240.309	3.84059	-18.6178	233.342	8.98077	-41.9998	224.938	7.79149	-65.7549	228.796	-12.1671	-24.5358	210.5	-9.41533	-43.3228	179.479	-4.71055	-48.3009	218.962	-27.4663	-14.896	192.933	-18.1149	-27.2631	174.828	-5.73265	-14.3052	220.687	-49.8235	-2.32776	217.861	-49.9902	-17.6731	213.919	-59.3231	-37.4271	238.361	-26.8887	31.1958	237.227	-29.2761	59.0535	246.325	-0.559235	38.278	
46	0.383333	220.645	22.4619	38.3539	203.213	24.2171	14.7359	193.037	24.6834	-10.568	185.677	21.9208	-23.7953	239.94	8.26194	-19.9467	232.962	6.07716	-42.3015	224.216	5.48777	-66.9533	228.626	-14.1994	-23.645	209.334	-10.8454	-44.7335	181.38	-6.80851	-50.4189	219.382	-27.4531	-15.299	193.347	-18.2457	-27.2228	175.005	-5.67653	-13.4346	220.779	-51.4576	-2.63579	215.45	-54.7079	-21.8753	214.705	-54.5162	-38.1475	236.955	-31.6124	28.0033	238.292	-28.9027	54.4249	245.367	-4.11373	38.971	
47	0.391667	220.615	19.3067	41.9535	201.549	27.0909	14.2285	192.512	26.7061	-7.23564	185.895	19.3422	-25.6616	239.609	9.17758	-18.905	232.843	4.53018	-43.7136	226.038	9.5764	-64.141	227.263	-16.8267	-25.3299	207.352	-12.2928	-46.7928	180.884	-5.75563	-54.6403	218.7	-29.3729	-15.1214	190.56	-21.7301	-26.9741	175.131	-8.12115	-14.6248	220.635	-49.2099	-2.04097	218.01	-50.0617	-20.3696	216.885	-54.7869	-37.5467	238.55	-31.3725	31.6616	238.442	-25.3912	58.1536	244.717	-2.2214	42.2699	
48	0.4	219.194	21.9636	40.7995	200.125	28.1582	16.2128	191.466	25.3337	-8.4979	183.346	22.0634	-22.922	238.271	6.5478	-24.4637	233.607	10.0923	-41.3595	225.585	6.62773	-62.5671	227.124	-16.6055	-25.7421	210.595	-12.0033	-46.2121	183.413	-7.89311	-56.7661	219.104	-27.6029	-17.4385	195.378	-22.9633	-28.413	171.922	-9.21158	-11.8502	220.447	-48.9028	-0.035241	217.009	-55.6488	-18.3078	217.006	-55.4085	-36.6819	237.162	-30.1082	32.9628	238.733	-27.5738	55.488	244.671	-1.60498	40.7673	
49	0.408333	219.002	19.4162	39.2984	200.181	25.3969	11.618	189.778	25.7684	-5.69952	182.003	19.7302	-25.3499	236.826	6.63927	-20.6741	230.292	7.45687	-46.3028	224.002	7.32155	-67.279	229.831	-12.2965	-22.8141	208.891	-16.0918	-47.8451	186.909	-11.3467	-58.0791	217.364	-31.4089	-17.8747	196.146	-21.6424	-29.3818	172.487	-9.8071	-14.2961	222.327	-46.2776	-0.141605	217.361	-55.157	-18.3756	218.871	-56.7913	-35.3499	238.269	-29.5931	30.0899	237.377	-24.1147	54.4806	245.138	-1.82444	40.8154	
50	0.416667	216.72	23.5633	36.9877	196.312	27.9272	13.4385	188.293	24.3567	-5.84815	180.214	19.297	-27.3396	237.987	10.7725	-22.8447	232.349	11.0702	-44.6691	226.626	9.88513	-64.47	229.365	-11.8665	-28.029	215.123	-11.8406	-46.6078	190.1	-16.4453	-60.9679	218.714	-31.1966	-17.7354	196.065	-23.9558	-28.8945	172.374	-12.8053	-13.6835	223.199	-46.6915	-1.89038	221.745	-50.6004	-20.4125	217.67	-60.3544	-35.5575	239.76	-25.1235	27.0695	239.787	-22.812	53.5696	242.815	-0.920943	41.2651	
51	0.425	213.417	25.7877	40.3836	196.315	24.528	11.4712	187.186	20.5896	-6.18195	179.462	16.6215	-27.0966	237.576	10.7933	-19.5131	231.799	10.6377	-41.0671	227.705	13.8305	-64.9879	232.203	-10.6949	-23.0974	219.101	-11.6144	-46.6151	195.058	-11.8026	-66.1698	220.608	-30.6624	-16.2608	194.535	-20.1805	-29.1104	173.213	-13.492	-13.4105	226.093	-45.367	-3.3753	222.494	-52.3126	-17.0225	222.639	-57.7413	-39.7259	240.711	-23.477	27.6517	238.963	-24.0491	55.5819	243.881	3.88297	40.6392	
52	0.433333	212.636	26.397	38.1211	191.857	25.5407	12.0439	185.388	18.1878	-8.43474	175.944	16.209	-26.1719	236.282	12.7849	-23.7292	232.829	15.7385	-45.3926	229.118	10.7676	-68.5775	234.091	-9.99647	-26.798	222.571	-8.44607	-48.1318	202.134	-15.803	-67.9241	221.784	-25.3785	-19.6889	197.375	-21.794	-28.8711	174.887	-13.8816	-13.0561	229.258	-42.1161	-2.30191	227.484	-47.6959	-20.4187	227.265	-53.3179	-38.5017	241.933	-22.8673	29.1236	238.614	-16.6155	57.4713	241.579	4.52754	39.7471	
53	0.441667	209.937	26.4971	38.1463	188.616	25.946	12.1012	181.28	18.8351	-6.79189	173.686	11.9576	-29.9789	236.733	16.724	-20.1976	234.036	15.1844	-41.3641	230.828	13.4701	-63.989	236.418	-3.45959	-25.2491	225.83	-9.01787	-52.2764	210.987	-15.1134	-70.3428	224.87	-25.8234	-21.0338	201.256	-23.7029	-30.8409	179.02	-11.3207	-14.7567	232.188	-41.6102	-1.3397	230.717	-48.0918	-18.2995	233.157	-48.4982	-37.8646	243.152	-18.8854	31.3361	240.323	-14.4409	55.7828	242.443	11.0596	39.1989	
54	0.45	208.516	24.1554	38.4437	188.931	21.7443	14.3862	180.978	16.4792	-9.72418	172.981	10.5373	-25.4777	237.251	18.6399	-23.7293	234.886	20.154	-46.2358	233.261	18.669	-64.3072	238.184	-1.44135	-27.0368	229.257	-5.27129	-52.9077	217.442	-8.24829	-71.3157	228.077	-20.3557	-21.42	205.3	-24.3076	-32.1725	183.355	-15.6386	-19.0154	236.737	-38.4629	-5.06312	235.556	-43.2381	-22.659	236.969	-48.9227	-43.3825	243.076	-13.349	27.8453	240.333	-13.4488	56.0778	242.121	13.6784	36.9078	
55	0.458333	207.363	23.6886	37.427	189.106	19.8994	10.5783	179.32	15.4056	-7.66968	174.242	5.64427	-28.6207	236.027	23.8548	-21.6205	235.091	21.5686	-43.5954	234.398	21.9836	-62.7531	240.173	1.00712	-25.2795	233.815	-1.73536	-50.1066	220.912	-8.92793	-74.6151	233.069	-21.0126	-17.961	207.581	-17.6091	-34.0478	184.573	-18.8927	-20.1457	239.148	-34.3434	-1.97213	240.021	-42.3857	-22.1272	242.043	-41.397	-40.9992	245.475	-12.2898	28.4898	239.67	-10.9242	56.5861	239.341	17.8059	37.991	
56	0.466667	206.103	24.5165	37.2434	186.329	19.128	10.6761	181.064	12.9242	-10.0005	174.091	5.86085	-28.7242	236.496	24.2891	-20.8933	234.483	27.204	-39.7792	235.194	27.3657	-63.9391	242.186	3.97084	-23.3111	237.999	-0.556214	-46.9574	226.579	-4.83886	-72.1076	235.973	-14.7814	-17.1726	214.195	-21.774	-35.7519	190.217	-20.9684	-25.1756	242.145	-29.8911	-2.39949	244.286	-39.0595	-20.1419	244.181	-42.853	-40.2632	244.426	-11.4474	31.8185	241.067	-8.55483	56.7305	238.829	15.9477	39.0395	
57	0.475	203.38	25.1153	38.6506	185.58	19.8207	8.4453	178.573	13.2142	-14.083	175.666	5.12816	-26.7361	235.17	29.4617	-17.7325	235.844	28.8077	-40.482	235.23	28.596	-63.6976	242.991	4.47263	-22.726	239.123	3.37894	-49.9025	229.958	-3.88972	-71.3306	238.996	-15.421	-16.2182	220.017	-18.6041	-36.676	192.582	-15.8875	-28.7538	245.978	-31.4368	-3.02477	246.484	-31.5303	-20.2237	248.952	-36.7167	-43.1155	244.441	-5.75498	32.4211	241.389	-7.64245	54.5541	237.885	16.9508	40.2266	
58	0.483333	203.723	24.5149	36.8453	183.68	19.3644	12.1816	176.912	14.7882	-9.66335	176.03	3.48462	-28.7026	234.623	28.7501	-16.9291	233.901	33.6639	-41.1129	233.686	33.4003	-61.3978	242.796	7.22493	-20.486	239.579	2.23708	-50.082	228.099	0.60173	-74.3861	239.124	-9.17274	-17.0185	219.182	-18.7617	-36.0225	195.162	-17.0888	-30.0147	246.091	-29.3717	-1.6318	248.091	-31.9242	-20.6098	251.863	-35.1191	-39.962	243.569	-8.55326	33.5711	239.907	-7.67148	59.9474	236.587	18.1959	43.0489	
